<svg xmlns="http://www.w3.org/2000/svg" xmlns:xlink="http://www.w3.org/1999/xlink" version="1.1" x="0px" y="0px" viewBox="7.5 7.5 50 62.5" enable-background="new 7.5 7.5 50 50" xml:space="preserve"><path d="M32.5,8.188C19.094,8.188,8.188,19.094,8.188,32.5c0,13.406,10.907,24.313,24.313,24.313  c13.406,0,24.313-10.906,24.313-24.313C56.813,19.094,45.906,8.188,32.5,8.188z M32.5,55.813c-12.854,0-23.313-10.458-23.313-23.313  S19.646,9.188,32.5,9.188S55.813,19.646,55.813,32.5S45.354,55.813,32.5,55.813z"/><path d="M32.875,14.67c-0.003-0.004-0.009-0.005-0.012-0.009c-0.008-0.008-0.016-0.016-0.024-0.024  c-0.004-0.003-0.005-0.009-0.009-0.012c-0.018-0.015-0.039-0.021-0.058-0.033c-0.023-0.015-0.043-0.034-0.068-0.045  c-0.01-0.004-0.02-0.007-0.03-0.011c-0.025-0.009-0.051-0.012-0.077-0.017c-0.028-0.006-0.055-0.014-0.083-0.015  c-0.005,0-0.009-0.003-0.015-0.003c-0.006,0-0.011,0.003-0.016,0.003c-0.025,0-0.049,0.008-0.074,0.013  c-0.029,0.005-0.057,0.008-0.085,0.019c-0.01,0.004-0.021,0.007-0.031,0.012c-0.023,0.011-0.042,0.029-0.064,0.043  c-0.02,0.013-0.042,0.019-0.06,0.035c-0.004,0.003-0.005,0.009-0.009,0.012c-0.008,0.008-0.016,0.016-0.024,0.024  c-0.003,0.004-0.009,0.005-0.012,0.009l-8.25,9.375c-0.182,0.207-0.162,0.523,0.045,0.706c0.095,0.083,0.212,0.125,0.33,0.125  c0.139,0,0.276-0.058,0.375-0.17L32,16.325V50c0,0.276,0.224,0.5,0.5,0.5S33,50.276,33,50V16.325l7.375,8.38  c0.099,0.113,0.236,0.17,0.375,0.17c0.117,0,0.235-0.041,0.33-0.125c0.208-0.183,0.228-0.499,0.045-0.706L32.875,14.67z"/><text x="7.5" y="72.5" fill="#000000" font-size="5px" font-weight="bold" font-family="'Helvetica Neue', Helvetica, Arial-Unicode, Arial, Sans-serif">Created by Abd Majd</text><text x="7.5" y="77.5" fill="#000000" font-size="5px" font-weight="bold" font-family="'Helvetica Neue', Helvetica, Arial-Unicode, Arial, Sans-serif">from the Noun Project</text></svg>