<svg xmlns="http://www.w3.org/2000/svg" xmlns:xlink="http://www.w3.org/1999/xlink" xml:space="preserve" version="1.0" style="shape-rendering:geometricPrecision;text-rendering:geometricPrecision;image-rendering:optimizeQuality;" viewBox="0 0 6210 7762.5" x="0px" y="0px" fill-rule="evenodd" clip-rule="evenodd"><g><path class="fil0" d="M5725 3105c0,-724 -293,-1379 -767,-1853 -474,-474 -1130,-767 -1853,-767 -724,0 -1379,293 -1853,767 -474,474 -767,1129 -767,1853 0,723 293,1379 767,1853 474,474 1129,767 1853,767 723,0 1379,-293 1853,-767 474,-474 767,-1130 767,-1853zm-2378 1375c0,134 -108,242 -242,242 -134,0 -242,-108 -242,-242l0 -2165 -559 558c-95,95 -248,95 -343,0 -94,-94 -94,-248 0,-342l968 -968 2 -2 3 -3 0 0 0 0 4 -4 0 0 4 -4 1 0 3 -3 1 -1 4 -3 1 -1 0 0 1 -1 0 0 1 -1 1 -1 1 0 1 -1 1 -1 1 0 0 -1 1 -1 1 0 1 -1 0 0 1 -1 1 0 1 -1 1 -1 1 0 0 0 0 -1 1 0 1 -1 1 -1 1 0 1 -1 0 0 1 0 1 -1 1 -1 1 0 1 -1 0 0 0 0 1 -1 1 -1 3 -1 2 -1 3 -2 0 0 2 -1 3 -2 0 0 3 -1 2 -2 1 0 2 -1 3 -1 0 0 2 -1 3 -2 0 0 3 -1 3 -1 0 0 2 -1 3 -1 0 0 3 -1 3 -1 0 0 2 -1 3 -1 0 0 3 -1 3 -1 0 0 3 0 2 -1 1 0 0 0 1 0 0 -1 1 0 1 0 1 0 1 -1 0 0 0 0 1 0 0 0 1 0 3 -1 0 0 1 0 0 0 0 0 1 0 0 0 1 0 0 0 1 -1 0 0 1 0 0 0 1 0 0 0 1 0 0 0 1 0 0 0 1 -1 1 0 0 0 1 0 0 0 1 0 0 0 0 0 1 0 0 0 1 0 7 -1 1 -1 1 0 0 0 1 0 0 0 4 0 2 0 0 0 6 -1 4 0 1 0 0 0 6 0 3 0 3 -1 3 0 8 1 1 0 0 0 2 0 3 0 0 0 1 0 2 0 1 0 1 0 1 1 0 0 1 0 2 0 1 0 1 0 1 0 0 0 1 0 1 0 1 1 2 0 1 0 4 0 1 1 1 0 0 0 1 0 1 0 1 0 1 1 1 0 0 0 1 0 1 0 1 0 1 1 1 0 1 0 0 0 1 0 1 1 2 0 1 0 1 0 0 0 1 1 1 0 1 0 1 0 1 1 0 0 1 0 1 0 1 1 1 0 1 0 1 0 1 1 1 0 1 0 1 1 2 0 0 0 1 1 1 0 1 0 1 1 1 0 0 0 3 1 3 1 0 0 0 0 1 0 0 1 1 0 0 0 1 0 0 0 1 1 0 0 1 0 0 0 1 0 0 1 1 0 0 0 1 0 0 1 1 0 0 0 1 0 0 0 1 0 0 1 0 0 1 0 0 0 1 1 0 0 1 0 0 0 1 0 0 1 1 0 0 0 3 1 2 1 0 0 6 3 0 0 2 2 3 1 0 0 5 3c17,10 33,22 48,37l0 0 4 5 1 0 0 1 968 967c94,94 94,248 0,342 -95,95 -249,95 -343,0l-559 -558 0 2165zm1953 -3571c562,562 910,1339 910,2196 0,857 -348,1634 -910,2195 -561,562 -1338,910 -2195,910 -857,0 -1634,-348 -2196,-910 -561,-561 -909,-1338 -909,-2195 0,-857 348,-1634 909,-2196 562,-561 1339,-909 2196,-909 857,0 1634,348 2195,909z"/></g><text x="0" y="6225" fill="#000000" font-size="5px" font-weight="bold" font-family="'Helvetica Neue', Helvetica, Arial-Unicode, Arial, Sans-serif">Created by Ioannis Malikoutsakis</text><text x="0" y="6230" fill="#000000" font-size="5px" font-weight="bold" font-family="'Helvetica Neue', Helvetica, Arial-Unicode, Arial, Sans-serif">from the Noun Project</text></svg>